PathFileType	3	(X/Y/Z)	D:\Vicon Setup\UG\Test1\New Session\NewSession14.trc
DataRate	CameraRate	NumFrames	NumMarkers	Units	OrigDataRate	OrigDataStartFrame	OrigNumFrames
100.0	100.0	4	27	mm	100.0	355	173	
Frame#	Time	Sternum			LShoulder			RShoulder			LASIS			RASIS			RPSIS			LPSIS			RKneeLateral			RKneeMedial			RFibulaHead			RMidShank			RAnkleLateral			RAnkleMedial			RHeel			RMT5			RMT2			RToe			LKneeLateral			LKneeMedial			LFibulaHead			LMidShank			LAnkleLateral			LAnkleMedial			LHeel			LMT5			LMT2			LToe			
		X1	Y1	Z1	X2	Y2	Z2	X3	Y3	Z3	X4	Y4	Z4	X5	Y5	Z5	X6	Y6	Z6	X7	Y7	Z7	X8	Y8	Z8	X9	Y9	Z9	X10	Y10	Z10	X11	Y11	Z11	X12	Y12	Z12	X13	Y13	Z13	X14	Y14	Z14	X15	Y15	Z15	X16	Y16	Z16	X17	Y17	Z17	X18	Y18	Z18	X19	Y19	Z19	X20	Y20	Z20	X21	Y21	Z21	X22	Y22	Z22	X23	Y23	Z23	X24	Y24	Z24	X25	Y25	Z25	X26	Y26	Z26	X27	Y27	Z27	
355	3.54	-169.31516	1408.7496	309.40842	-381.48639	1468.5625	340.63425	-22.856291	1470.0569	419.24542	-317.68097	1011.8564	382.6319	-64.769669	1038.5726	393.76291	-139.51111	1076.7327	553.16949	-268.07333	1075.2686	549.62201	-36.055412	590.59058	288.43475	-157.2101	583.40894	254.48981	-30.695169	508.62491	275.47052	-118.108	347.82416	245.67105	-74.924393	135.18431	284.9942	-146.78859	177.93533	243.17075	-134.82294	119.59148	355.56494	-61.168575	58.874523	138.24777	-115.44868	111.39027	141.31239	-118.32823	110.16145	96.813644	-335.4259	561.6488	586.67505	-207.32123	541.93396	569.12463	-336.96658	516.11023	631.50751	-256.83939	363.76645	681.24249	-300.76721	226.78693	849.16357	-222.60159	211.57298	796.93335	-229.62617	277.74136	892.0426				-259.47513	72.815475	814.80859	-314.60889	73.379097	859.19177
356	3.55	-167.67786	1413.0873	280.72461	-379.38019	1472.1135	312.57581	-21.700577	1471.1284	389.62753	-317.3533	1014.5833	351.76654	-64.97348	1039.5217	361.98065	-139.27895	1078.7349	521.27258	-267.94849	1078.1801	518.15735	-37.273712	585.28613	267.56882	-158.56151	577.32477	231.8669	-31.425898	503.04477	251.6124	-118.02868	344.89426	208.0368	-73.867165	130.00761	232.97372	-146.17232	174.74142	195.84154	-131.8353	110.14761	304.15787	-64.075157	62.662048	81.899811	-118.54379	114.95908	89.955589	-122.6643	117.20228	45.515667	-337.43494	562.71997	555.01312	-210.54929	541.76398	535.84229	-339.08267	518.13702	600.38812	-258.93506	367.89285	655.05145	-302.69394	237.28745	827.64008	-224.64441	219.74916	775.88019	-231.94626	290.97223	866.33813				-261.63162	81.239807	801.86768	-316.65045	81.552597	848.03564
357	3.56	-166.27516	1416.1997	251.48836	-377.32123	1474.4066	284.9903	-20.401564	1470.7958	359.8844	-316.81656	1016.2523	320.90094	-65.140419	1039.374	330.60284	-138.47443	1079.2096	489.90393	-267.28876	1079.5961	487.02509	-37.830116	579.93732	245.55693	-161.35358	570.67249	210.99034	-32.441547	498.08542	228.09706	-118.10297	342.62497	173.98941	-72.810623	126.46272	185.98244	-145.46434	172.99846	152.58649	-130.01607	102.57037	256.93558	-65.346764	67.597504	31.195055	-119.42254	119.39836	43.184341	-124.18491	124.58133	-0.9411791	-339.39719	562.28461	521.77179	-213.54425	540.651	502.04449	-341.59302	518.81189	567.90771	-261.34644	371.14017	627.76837	-304.09494	247.46909	806.13507	-226.17892	227.38048	754.22937	-232.54836	302.60736	841.28571				-264.22693	90.501724	786.97968	-319.79291	91.588943	834.7226
358	3.57	-165.03513	1417.9244	222.03162	-375.09381	1475.1523	257.76358	-18.796824	1469.1044	330.03796	-316.16342	1016.6149	290.18829	-65.197998	1038.0819	299.4473	-137.31419	1078.1135	458.88223	-266.48032	1079.6044	456.33716	-38.637653	575.03113	222.35712	-164.72095	563.49786	190.41299	-33.831242	493.97726	203.13675	-118.81732	340.90323	142.26288	-72.235886	123.70171	144.6604	-144.75407	172.13033	113.3968	-130.38326	96.954636	214.56642	-64.592979	71.078087	-12.466735	-118.28631	122.68158	1.6675991	-122.55903	130.03661	-42.056374	-341.57455	560.21954	486.74536	-216.61533	538.01074	466.9371	-344.06818	518.06305	534.0202	-263.87469	372.35483	599.18213	-304.81314	257.96555	784.0592	-228.35774	234.19794	733.62579	-232.35339	313.41855	816.78778				-267.5047	100.16676	768.70868	-322.1073	104.19273	817.52075
